<?xml version="1.0" encoding="UTF-8" standalone="no"?>
<svg
   xmlns:dc="http://purl.org/dc/elements/1.1/"
   xmlns:cc="http://creativecommons.org/ns#"
   xmlns:rdf="http://www.w3.org/1999/02/22-rdf-syntax-ns#"
   xmlns:svg="http://www.w3.org/2000/svg"
   xmlns="http://www.w3.org/2000/svg"
   xmlns:sodipodi="http://sodipodi.sourceforge.net/DTD/sodipodi-0.dtd"
   xmlns:inkscape="http://www.inkscape.org/namespaces/inkscape"
   width="458.9375"
   height="124.25"
   viewBox="0 0 367.15 99.4"
   version="1.1"
   id="svg2"
   inkscape:version="0.48.4 r9939"
   sodipodi:docname="AnimalSilhouettes2-Rhinocerous.svg">
  <metadata
     id="metadata11474">
    <rdf:RDF>
      <cc:Work
         rdf:about="">
        <dc:format>image/svg+xml</dc:format>
        <dc:type
           rdf:resource="http://purl.org/dc/dcmitype/StillImage" />
        <dc:title></dc:title>
      </cc:Work>
    </rdf:RDF>
  </metadata>
  <defs
     id="defs11472" />
  <sodipodi:namedview
     pagecolor="#ffffff"
     bordercolor="#666666"
     borderopacity="1"
     objecttolerance="10"
     gridtolerance="10"
     guidetolerance="10"
     inkscape:pageopacity="0"
     inkscape:pageshadow="2"
     inkscape:window-width="1855"
     inkscape:window-height="1056"
     id="namedview11470"
     showgrid="false"
     units="in"
     fit-margin-top="0.25"
     fit-margin-left="0.25"
     fit-margin-right="0.25"
     fit-margin-bottom="0.25"
     inkscape:zoom="0.56869759"
     inkscape:cx="-26.65625"
     inkscape:cy="-322.18243"
     inkscape:window-x="65"
     inkscape:window-y="24"
     inkscape:window-maximized="1"
     inkscape:current-layer="svg2" />
  <path
     d="m 245.58,18.65 c 2.62,-0.28 5.27,-0.47 7.93,-0.56 l 0.96,-0.04 c 5.62,0.07 11.26,0.07 16.9,0.01 l 0.96,0.04 c 1.62,0.08 3.25,0.18 4.86,0.5 1.39,0.53 2.88,0.77 4.37,0.57 l 0.86,-0.03 c 0.67,0.09 1.99,0.28 2.66,0.37 1.03,0.69 2.16,0.9 3.39,0.63 0.67,0.1 2.01,0.28 2.68,0.38 1,0.7 2.11,0.92 3.33,0.68 0.43,0.07 1.29,0.23 1.72,0.3 0.98,0.71 2.07,0.94 3.28,0.7 0.43,0.08 1.28,0.23 1.71,0.31 1,0.69 2.1,0.93 3.3,0.69 0.44,0.08 1.3,0.24 1.73,0.32 0.59,0.14 1.78,0.43 2.37,0.58 0.43,0.07 1.28,0.23 1.71,0.3 0.54,0.21 1.62,0.62 2.16,0.83 l 0.82,-0.09 0.82,0.22 c 0.57,0.18 1.72,0.53 2.3,0.7 0.42,0.1 1.27,0.31 1.7,0.41 0.57,0.18 1.73,0.54 2.3,0.71 l 0.83,0.25 c 0.57,0.19 1.71,0.58 2.28,0.78 l 0.82,0.26 c 0.58,0.2 1.73,0.6 2.31,0.8 l 0.82,0.28 c 0.56,0.21 1.69,0.63 2.26,0.84 l 0.75,0.3 c 0.34,0.14 1.02,0.42 1.35,0.57 l 0.68,0.28 c 0.29,0.16 0.86,0.49 1.15,0.65 l 0.68,0.16 c 0.29,0.17 0.87,0.53 1.16,0.7 l 0.73,0.2 c 0.54,0.26 1.61,0.79 2.15,1.05 l 0.73,0.37 c 0.33,0.17 0.98,0.52 1.31,0.69 0.28,0.19 0.83,0.58 1.11,0.77 l 0.66,0.24 c 0.29,0.18 0.89,0.54 1.18,0.72 l 0.61,0.37 c 0.28,0.19 0.83,0.57 1.11,0.76 0.27,0.2 0.81,0.6 1.08,0.79 l 0.53,0.43 c 0.24,0.23 0.72,0.7 0.96,0.93 0.2,0.29 0.59,0.86 0.79,1.15 0.14,0.37 0.43,1.11 0.58,1.48 -0.08,1.14 -0.05,2.27 0.08,3.4 -0.43,0.12 -1.29,0.35 -1.72,0.46 -1.5,0.12 -2.96,0.44 -4.32,1.04 -1.62,0.32 -3.27,0.41 -4.89,0.44 -1.58,-0.04 -3.16,-0.02 -4.72,0.05 l -0.84,-0.18 -0.41,0.74 c -0.67,0.07 -2.01,0.23 -2.68,0.3 l -0.89,-0.01 c -1.55,-0.16 -3.1,0.1 -4.55,0.61 -1.28,0.24 -2.56,0.39 -3.84,0.44 l -0.91,0.03 c -1.48,-0.15 -2.91,0.36 -4.09,1.22 l -0.73,0.39 -0.78,0.14 -0.19,0.52 -0.19,0.51 c -0.11,0.25 -0.33,0.73 -0.44,0.98 -0.08,0.25 -0.24,0.76 -0.32,1.02 -0.06,0.28 -0.18,0.83 -0.24,1.1 -0.04,0.27 -0.1,0.8 -0.14,1.07 l 0.65,-0.51 c 1.16,0.04 2.32,0.14 3.48,0.3 1.2,0.32 2.32,0.13 3.37,-0.56 0.44,-0.08 1.32,-0.23 1.77,-0.31 0.64,-0.02 1.92,-0.06 2.56,-0.08 0.33,-0.16 1,-0.49 1.33,-0.65 0.42,-0.06 1.26,-0.19 1.67,-0.26 1.21,0.24 2.34,0.03 3.39,-0.62 0.69,-0.09 2.06,-0.27 2.74,-0.36 1.51,0.11 3.03,-0.11 4.43,-0.69 0.67,-0.12 2,-0.34 2.67,-0.46 0.58,-0.12 1.75,-0.36 2.33,-0.49 1.1,-0.16 2.13,0.05 3.08,0.62 0.31,0.08 0.93,0.25 1.24,0.33 -0.12,0.64 -0.37,1.92 -0.5,2.55 l -0.54,0.29 c -0.25,0.16 -0.75,0.47 -1,0.62 l -0.52,0.29 c -0.23,0.18 -0.69,0.54 -0.92,0.72 -0.29,0.16 -0.86,0.48 -1.14,0.64 l -0.68,0.31 c -0.54,0.22 -1.62,0.66 -2.16,0.88 l -0.81,0.29 c -0.58,0.19 -1.76,0.57 -2.34,0.75 -0.44,0.11 -1.3,0.32 -1.73,0.43 -0.6,0.16 -1.78,0.48 -2.37,0.64 -0.44,0.09 -1.3,0.29 -1.73,0.38 -0.59,0.16 -1.77,0.48 -2.36,0.64 -0.43,0.1 -1.3,0.29 -1.73,0.38 -0.59,0.16 -1.77,0.47 -2.36,0.62 -0.42,0.09 -1.28,0.25 -1.7,0.34 l -0.84,-0.07 c -1.2,-0.27 -2.28,-0.03 -3.22,0.73 -0.44,0.06 -1.31,0.2 -1.74,0.27 -1.23,-0.24 -2.35,-0.01 -3.36,0.69 -0.44,0.08 -1.32,0.24 -1.76,0.32 -1.23,-0.22 -2.35,0.03 -3.36,0.73 -0.44,0.08 -1.3,0.25 -1.73,0.33 l -0.86,-0.06 c -1.21,-0.27 -2.3,-0.03 -3.27,0.72 -0.44,0.08 -1.31,0.22 -1.75,0.29 -1.22,-0.18 -2.32,0.08 -3.31,0.8 l -0.82,0.22 -0.83,-0.07 c -0.54,0.2 -1.61,0.62 -2.15,0.83 l -0.84,0.14 c -1.19,-0.21 -2.27,0.03 -3.25,0.72 -0.42,0.08 -1.28,0.24 -1.7,0.32 -1.19,-0.25 -2.26,-0.03 -3.23,0.68 -0.42,0.08 -1.25,0.23 -1.67,0.31 -1.21,-0.32 -2.3,-0.09 -3.27,0.68 -1.69,0.12 -5.08,0.36 -6.77,0.49 -3.35,0.05 -6.61,0.08 -9.92,0.26 -0.42,0.01 -1.25,0.04 -1.66,0.05 -1.82,0.57 -3.73,0.64 -5.61,0.63 l -0.89,-0.03 c -1.8,-0.19 -3.6,0.07 -5.34,0.51 -1.55,0.3 -3.12,0.42 -4.68,0.44 -1.82,-0.11 -3.64,0.09 -5.39,0.58 -1.22,0.23 -2.44,0.37 -3.67,0.39 -1.84,-0.06 -3.67,0.15 -5.43,0.65 -1.21,0.26 -2.44,0.4 -3.67,0.44 l -0.87,-0.03 c -1.5,-0.19 -2.99,0.06 -4.37,0.59 -1.23,0.25 -2.46,0.38 -3.7,0.4 l -0.89,0 c -1.83,-0.11 -3.64,0.14 -5.4,0.58 -1.23,0.23 -2.46,0.37 -3.7,0.4 l -0.89,0.01 c -1.84,-0.1 -3.67,0.14 -5.45,0.58 -1.62,0.3 -3.25,0.44 -4.88,0.49 l -0.92,0.01 c -1.8,-0.04 -3.59,-0.03 -5.37,0 l -0.75,-0.29 -0.43,0.79 c -2.64,0.31 -5.28,0.49 -7.92,0.53 -5.48,-0.03 -10.93,-0.16 -16.4,-0.03 l -0.96,-0.02 c -3.06,-0.12 -6.04,-0.16 -9.05,-0.47 -2.42,-0.37 -4.84,-0.57 -7.26,-0.59 l -0.89,-0.02 c -1.91,-0.04 -3.81,-0.16 -5.7,-0.38 -1.62,-0.14 -4.86,-0.42 -6.48,-0.56 l -0.93,0 c -2.66,0.04 -5.3,-0.05 -7.93,-0.26 -1.04,-1.09 -2.65,-0.73 -3.52,0.36 l -0.71,0.16 -0.69,0.05 c -0.3,0.09 -0.91,0.28 -1.21,0.37 l -0.63,0.05 c -0.27,0.11 -0.8,0.35 -1.06,0.46 l -0.65,-0.34 c -0.32,-0.11 -0.96,-0.31 -1.28,-0.41 -0.29,-0.13 -0.88,-0.38 -1.18,-0.5 -0.28,-0.15 -0.83,-0.45 -1.11,-0.6 l -0.66,-0.18 c -0.32,-0.18 -0.95,-0.52 -1.26,-0.69 -0.67,-0.09 -2,-0.27 -2.66,-0.36 -0.72,-0.1 -2.16,-0.3 -2.88,-0.4 l -0.48,-0.78 -0.86,0.18 c -1.26,-0.08 -2.52,-0.11 -3.78,-0.1 -0.73,-0.1 -2.2,-0.31 -2.93,-0.41 -1.48,-0.58 -3.06,-0.8 -4.63,-0.67 -0.68,-0.05 -2.05,-0.17 -2.73,-0.23 L 90,74.18 89.16,74.25 c -0.68,0.02 -2.03,0.06 -2.7,0.08 C 85.74,74.22 84.32,74 83.61,73.89 82.49,73.23 81.29,73.02 80.01,73.27 79.34,73.18 77.99,73 77.31,72.91 76.97,72.75 76.27,72.43 75.92,72.28 75.27,72.27 73.97,72.25 73.32,72.24 72.89,72.18 72.03,72.06 71.6,71.99 71.25,71.83 70.56,71.5 70.21,71.34 69.54,71.31 68.2,71.26 67.53,71.24 67.07,71.16 66.14,71 65.67,70.92 64.23,70.35 62.69,70.11 61.15,70.17 60.72,70.11 59.86,70 59.43,69.95 59.1,69.78 58.43,69.46 58.1,69.29 57.45,69.28 56.15,69.27 55.5,69.26 55.05,69.18 54.15,69.02 53.7,68.94 52.6,68.26 51.42,68.02 50.14,68.25 49.43,68.14 48,67.93 47.29,67.82 46.13,67.32 44.98,67.3 43.81,67.77 l -0.79,0.17 -0.75,0.11 c -0.29,0.14 -0.87,0.43 -1.16,0.57 -0.28,0.16 -0.84,0.47 -1.12,0.63 l -0.58,0.26 c -0.25,0.17 -0.75,0.52 -1.01,0.69 -0.26,0.17 -0.79,0.51 -1.06,0.68 l -0.6,0.24 c -0.27,0.19 -0.8,0.56 -1.06,0.74 -0.32,0.17 -0.97,0.51 -1.29,0.68 l -0.75,0.34 c -0.6,0.22 -1.81,0.65 -2.42,0.86 -0.47,0.11 -1.4,0.33 -1.87,0.44 l -0.93,0.16 C 24.95,74.14 21.51,73.9 18.05,73.69 l 0.21,-0.61 c 0.17,-0.26 0.52,-0.78 0.69,-1.04 0.2,-0.25 0.59,-0.74 0.79,-0.98 0.22,-0.24 0.64,-0.72 0.86,-0.96 0.21,-0.24 0.65,-0.73 0.87,-0.97 0.21,-0.24 0.65,-0.74 0.86,-0.98 0.21,-0.25 0.63,-0.76 0.84,-1.01 0.21,-0.24 0.62,-0.73 0.83,-0.97 l 0.32,-0.59 c 0.19,-0.28 0.56,-0.83 0.75,-1.11 0.2,-0.26 0.6,-0.8 0.8,-1.07 l 0.28,-0.69 c 0.26,-0.52 0.79,-1.56 1.05,-2.08 0.96,-1.52 1.08,-3.38 0.28,-4.99 C 27.39,55.2 27.2,54.31 27.1,53.86 l -0.04,-0.88 c -0.25,-0.54 -0.74,-1.62 -0.99,-2.16 l -0.19,-0.74 c -0.18,-0.29 -0.53,-0.87 -0.7,-1.17 l -0.24,-0.64 c -0.18,-0.26 -0.53,-0.8 -0.7,-1.07 -0.17,-0.27 -0.51,-0.82 -0.68,-1.1 l -0.27,-0.59 c -0.17,-0.26 -0.53,-0.76 -0.71,-1.02 -0.16,-0.27 -0.5,-0.81 -0.66,-1.08 L 21.6,42.83 C 21.46,42.55 21.19,41.99 21.05,41.7 20.9,41.44 20.6,40.9 20.44,40.63 l -0.37,-0.52 0.77,-0.39 c 0.63,-0.13 1.9,-0.4 2.53,-0.53 0.44,0.08 1.31,0.24 1.75,0.31 1.06,0.69 2.21,0.91 3.46,0.66 0.7,0.12 2.09,0.36 2.79,0.48 0.62,0.18 1.85,0.55 2.46,0.73 0.39,0.16 1.17,0.47 1.56,0.63 0.32,0.17 0.96,0.5 1.29,0.67 0.25,0.2 0.77,0.6 1.03,0.79 l 0.61,0.28 c 0.26,0.2 0.78,0.6 1.04,0.8 0.25,0.21 0.75,0.62 1,0.83 0.25,0.2 0.75,0.62 0.99,0.83 0.25,0.2 0.74,0.61 0.99,0.82 0.24,0.2 0.72,0.61 0.95,0.82 l 0.57,0.32 c 0.26,0.18 0.8,0.55 1.06,0.74 0.28,0.17 0.85,0.52 1.13,0.7 0.66,1.17 2.21,1.61 3.29,0.67 0.43,-0.03 1.29,-0.08 1.72,-0.11 1.21,0.26 2.35,0.06 3.4,-0.6 0.68,-0.1 2.04,-0.3 2.71,-0.4 1.22,0.26 2.34,0.04 3.37,-0.66 0.43,-0.07 1.29,-0.23 1.72,-0.3 1.19,0.24 2.29,0.01 3.28,-0.7 0.43,-0.08 1.29,-0.23 1.72,-0.3 1.2,0.23 2.31,0 3.32,-0.71 0.44,-0.08 1.31,-0.23 1.75,-0.31 1.23,0.21 2.36,-0.02 3.4,-0.71 0.45,-0.07 1.34,-0.23 1.78,-0.3 0.65,-0.02 1.94,-0.05 2.59,-0.07 0.33,-0.16 1.01,-0.49 1.34,-0.65 0.43,-0.07 1.29,-0.2 1.72,-0.26 1.23,0.19 2.38,-0.03 3.46,-0.68 0.45,-0.08 1.35,-0.24 1.81,-0.32 0.65,-0.02 1.95,-0.06 2.6,-0.08 0.34,-0.16 1,-0.49 1.34,-0.65 0.42,-0.07 1.26,-0.19 1.68,-0.26 1.22,0.23 2.36,0.02 3.42,-0.65 0.69,-0.1 2.08,-0.3 2.77,-0.41 1.25,0.24 2.41,0.02 3.49,-0.67 0.45,-0.07 1.34,-0.23 1.79,-0.3 0.64,-0.02 1.94,-0.05 2.58,-0.07 0.34,-0.16 1.01,-0.49 1.34,-0.66 0.43,-0.06 1.29,-0.19 1.72,-0.26 1.25,0.2 2.41,-0.03 3.5,-0.68 0.46,-0.09 1.39,-0.25 1.85,-0.33 0.67,-0.02 2.02,-0.07 2.69,-0.09 0.35,-0.16 1.05,-0.49 1.4,-0.65 0.43,-0.06 1.3,-0.19 1.73,-0.25 0.65,-0.02 1.94,-0.05 2.58,-0.06 0.35,-0.16 1.03,-0.47 1.38,-0.63 0.42,-0.07 1.27,-0.21 1.69,-0.28 1.22,0.23 2.36,0.02 3.42,-0.64 0.68,-0.1 2.05,-0.31 2.74,-0.41 1.23,0.27 2.38,0.05 3.44,-0.65 0.68,-0.09 2.06,-0.28 2.74,-0.37 1.25,0.23 2.41,0.01 3.48,-0.68 0.45,-0.08 1.35,-0.23 1.81,-0.31 0.65,-0.02 1.97,-0.06 2.63,-0.08 0.34,-0.16 1.03,-0.48 1.38,-0.64 0.43,-0.06 1.28,-0.19 1.71,-0.25 0.65,-0.01 1.93,-0.03 2.57,-0.04 0.35,-0.16 1.04,-0.46 1.39,-0.62 0.42,-0.06 1.28,-0.18 1.71,-0.24 1.5,0.07 3.01,-0.15 4.42,-0.7 0.69,-0.1 2.06,-0.31 2.74,-0.41 1.23,0.27 2.37,0.06 3.42,-0.64 0.69,-0.09 2.05,-0.25 2.74,-0.34 1.51,0.11 3.02,-0.12 4.43,-0.7 0.45,-0.08 1.33,-0.23 1.78,-0.31 0.64,-0.01 1.93,-0.03 2.57,-0.04 0.33,-0.16 1,-0.48 1.34,-0.64 0.65,-0.08 1.95,-0.22 2.61,-0.29 1.49,0.12 2.99,-0.08 4.4,-0.63 0.44,-0.07 1.33,-0.22 1.77,-0.29 1.48,0.07 2.96,-0.16 4.34,-0.73 0.67,-0.09 2.01,-0.26 2.68,-0.34 1.47,0.13 2.95,-0.09 4.33,-0.65 0.67,-0.09 2,-0.26 2.67,-0.35 1.47,0.12 2.95,-0.09 4.33,-0.65 0.67,-0.09 2,-0.26 2.67,-0.35 1.47,0.12 2.95,-0.09 4.33,-0.65 0.67,-0.09 2,-0.26 2.67,-0.35 1.46,0.13 2.94,-0.08 4.32,-0.65 0.66,-0.09 1.99,-0.26 2.66,-0.35 1.48,0.13 2.97,-0.08 4.35,-0.64 1.19,-0.27 2.4,-0.4 3.63,-0.39 1.47,0.16 2.96,-0.04 4.35,-0.6 1.18,-0.25 2.38,-0.38 3.6,-0.38 1.82,0.08 3.65,-0.11 5.43,-0.56 z"
     id="path2194"
     inkscape:connector-curvature="0"
     style="stroke:#000000;stroke-width:0.09375" />
</svg>
