<?xml version="1.0" encoding="UTF-8" ?>
<!DOCTYPE svg PUBLIC "-//W3C//DTD SVG 1.1//EN" "http://www.w3.org/Graphics/SVG/1.1/DTD/svg11.dtd">
<svg width="314pt" height="147pt" viewBox="0 0 314 147" version="1.1" xmlns="http://www.w3.org/2000/svg">
<path fill="#000000" opacity="1.00" d=" M 165.87 30.37 C 159.32 19.31 160.64 7.28 171.57 1.61 C 185.69 -0.68 184.57 20.46 196.68 21.81 C 199.49 25.01 200.01 31.16 205.36 30.73 C 234.30 31.31 260.86 43.52 288.88 49.10 C 298.31 50.78 309.49 56.36 312.70 65.55 C 308.47 68.33 309.24 69.45 314.00 70.88 L 314.00 72.64 C 286.98 93.52 252.09 105.13 218.29 111.17 C 211.03 125.05 203.36 141.50 187.59 147.00 L 186.66 147.00 C 190.17 141.67 180.84 148.63 182.46 143.28 C 187.32 136.76 175.98 137.83 182.84 131.82 C 181.61 121.97 190.66 114.67 200.55 113.57 C 184.91 113.96 166.14 116.93 149.18 113.83 C 136.91 110.53 133.09 125.73 125.62 131.40 C 117.38 129.57 112.58 137.95 105.94 140.79 C 85.88 135.36 82.61 97.21 109.21 100.98 C 93.56 98.27 76.31 96.00 60.44 100.48 C 41.40 104.06 23.95 116.59 4.29 116.39 C 4.04 104.49 10.39 93.58 10.41 81.59 C 6.53 71.27 5.60 55.94 0.00 44.40 L 0.00 43.47 C 2.15 39.37 17.80 41.64 25.08 44.93 C 52.54 56.48 83.43 59.56 111.93 49.83 C 107.84 46.22 98.15 50.47 94.55 45.36 C 90.20 30.99 93.85 15.03 109.55 13.67 C 115.05 14.06 121.60 21.83 126.05 16.42 C 138.01 24.40 150.09 35.93 165.87 30.37 Z" />
</svg>
