<?xml version="1.0" encoding="UTF-8" ?>
<!DOCTYPE svg PUBLIC "-//W3C//DTD SVG 1.1//EN" "http://www.w3.org/Graphics/SVG/1.1/DTD/svg11.dtd">
<svg width="338pt" height="161pt" viewBox="0 0 338 161" version="1.1" xmlns="http://www.w3.org/2000/svg">
<path fill="#000000" opacity="1.00" d=" M 206.29 5.33 C 207.27 -5.18 213.80 9.56 218.22 6.31 C 220.54 -2.60 230.17 18.35 230.31 5.87 C 234.97 11.69 239.54 18.21 242.53 24.59 C 273.23 26.23 302.48 39.44 325.33 59.66 C 330.38 66.33 341.37 74.00 334.59 83.36 C 308.65 102.59 279.70 120.13 246.77 123.52 C 243.10 139.76 232.80 154.62 216.87 161.00 L 215.11 161.00 C 206.95 154.98 208.06 142.13 213.99 134.92 C 216.59 130.97 225.17 130.96 224.62 125.15 C 196.29 124.40 168.25 119.24 140.06 117.40 C 136.83 122.97 135.78 136.99 131.95 124.95 C 126.24 129.62 121.48 135.84 114.18 138.16 C 115.33 133.70 121.42 128.73 118.52 124.38 C 105.00 122.70 93.10 139.62 80.12 132.81 C 76.56 120.87 72.42 93.75 94.14 99.20 C 81.71 89.44 65.68 83.08 49.73 83.45 C 33.93 89.47 20.59 102.91 3.24 103.92 C 1.59 81.60 -2.45 57.52 5.41 36.08 C 30.09 44.55 54.79 67.15 82.46 52.21 C 76.23 50.81 71.37 45.72 74.72 39.09 C 81.63 27.78 94.71 17.91 108.57 19.60 C 120.10 22.58 136.87 30.49 145.22 21.05 C 151.81 22.70 150.19 16.30 157.91 18.36 C 151.78 10.76 167.48 20.38 164.24 11.91 C 168.61 15.12 175.97 14.16 170.86 8.00 C 175.13 9.71 179.48 12.00 184.28 10.72 C 182.41 2.00 192.47 12.97 195.44 7.72 C 194.51 -3.55 203.67 11.40 206.29 5.33 Z" />
</svg>
